<?xml version="1.0" encoding="UTF-8"?>
<svg width="175px" height="41px" viewbox="0 0 175 41" version="1.1" xmlns="http://www.w3.org/2000/svg" xmlns:xlink="http://www.w3.org/1999/xlink">
    <!-- Generator: Sketch 58 (84663) - https://sketch.com -->
    <title>Group 16 Copy@3x</title>
    <desc>Created with Sketch.</desc>
    <defs>
        <linearGradient x1="50%" y1="97.7609191%" x2="50%" y2="10.3107058%" id="linearGradient-1">
            <stop stop-color="#D72342" offset="0%"></stop>
            <stop stop-color="#FE4444" offset="100%"></stop>
        </linearGradient>
        <linearGradient x1="47.6489769%" y1="43.280428%" x2="58.08734%" y2="64.8527061%" id="linearGradient-2">
            <stop stop-color="#FFFFFF" offset="0%"></stop>
            <stop stop-color="#FAF4F4" offset="26.8203812%"></stop>
            <stop stop-color="#E5BDC3" offset="100%"></stop>
        </linearGradient>
    </defs>
    <g id="website" stroke="none" stroke-width="1" fill="none" fill-rule="evenodd">
        <g id="Contact-Final" transform="translate(-38.000000, -30.000000)">
            <g id="Group-5" transform="translate(38.000000, 30.000000)">
                <g id="Group-16-Copy">
                    <g id="Group-13-Copy-5">
                        <g id="Group-2">
                            <ellipse id="Oval-2-Copy" fill="#FFFFFF" cx="20.7082436" cy="20.4791261" rx="20.7082436" ry="20.4791261"></ellipse>
                            <path d="M16.1159694,0.498480243 L16.1159694,22.9599153 C16.1159694,23.1606238 16.2332443,23.2086193 16.3767069,23.066744 L19.8780489,19.6011853 C20.0249806,19.4557351 20.3473131,19.1889212 20.7195187,19.1883739 C21.097367,19.1878182 21.3554553,19.4366511 21.521688,19.6010445 L25.0251649,23.066744 C25.1686274,23.2086193 25.2860447,23.1606238 25.2860447,22.9599153 L25.2860447,10.2664146 C25.2860447,9.7116108 25.6549484,9.34678867 26.2159593,9.34678867 L30.3220237,9.34678867 C30.7549846,9.34678867 31.1889311,9.67182674 31.1889311,10.2664146 L31.1889311,30.6561159 C31.1889311,31.2498738 30.7578893,31.5757418 30.3220237,31.5757418 L25.6549484,31.5757418 C25.4242202,31.5757418 25.2104412,31.5099561 25.0251649,31.33051 L21.5218303,27.8566937 C21.2920467,27.6294524 21.0938613,27.416559 20.7195187,27.4164134 C20.3436333,27.4162672 20.0785901,27.6582306 19.8779066,27.8566937 L16.3768492,31.33051 C16.2333866,31.4723853 16.0155238,31.5757418 15.7470656,31.5757418 L11.079848,31.5757418 C10.5652574,31.5757418 10.2129406,31.1546586 10.2129406,30.7184259 L10.2129406,2.82264438 C4.17128833,6.39978737 0,13.0087524 0,20.4790205 C0,31.7892105 9.27141001,40.958041 20.7081368,40.958041 C32.1448636,40.958041 41.4162736,31.7892105 41.4162736,20.4790205 C41.4162736,9.16883046 32.1448636,0 20.7081368,0 C19.084932,0 17.6315773,0.149140526 16.1159694,0.498480243 Z" id="Fill-1-Copy" fill="url(#linearGradient-1)"></path>
                            <path d="M16.3545994,23.088757 L10.8387332,28.5095801 C10.7216351,28.6294075 10.5991449,28.7582176 10.4712627,28.8960104 C10.3433804,29.0338031 10.2574457,29.3047906 10.2134584,29.7089729 L10.2240753,23.2860496 L16.1158335,17.5241269 L16.1158335,22.9796982 C16.119556,23.0524041 16.1373826,23.1020096 16.1693132,23.1285149 C16.2121725,23.1650462 16.2739346,23.1517935 16.3545994,23.088757 Z" id="Path-90" fill="url(#linearGradient-2)" fill-rule="nonzero"></path>
                            <path d="M31.1927823,23.088757 L25.6769161,28.5095801 C25.5598179,28.6294075 25.4373277,28.7582176 25.3094455,28.8960104 C25.1815633,29.0338031 25.0956286,29.3047906 25.0516412,29.7089729 L25.0622582,23.2860496 L30.9540164,17.5241269 L30.9540164,22.9796982 C30.9577389,23.0524041 30.9755655,23.1020096 31.0074961,23.1285149 C31.0503554,23.1650462 31.1121174,23.1517935 31.1927823,23.088757 Z" id="Path-90" fill="url(#linearGradient-2)" fill-rule="nonzero" transform="translate(28.122212, 23.616550) scale(-1, 1) translate(-28.122212, -23.616550) "></path>
                            <path d="M16.1159694,0.498480243 L16.1159694,2.23894073 C17.6244611,1.85708793 19.079239,1.71587449 20.7081368,1.71587449 C31.1865964,1.71587449 39.6812022,10.1164954 39.6812022,20.4790205 C39.6812022,30.8415456 31.1865964,39.2421665 20.7081368,39.2421665 C10.2296773,39.2421665 1.73507145,30.8415456 1.73507145,20.4790205 C1.73507145,14.008213 5.17367601,8.24034935 10.2129406,4.86729281 L10.2129406,2.82264438 C4.11612023,6.34726487 0,12.9353594 0,20.4790205 C7.00297544e-16,31.7892105 9.27141001,40.958041 20.7081368,40.958041 C32.1448636,40.958041 41.4162736,31.7892105 41.4162736,20.4790205 C41.4162736,9.16883046 32.1448636,0 20.7081368,0 C19.084932,0 17.6315773,0.149140526 16.1159694,0.498480243 Z" id="Fill-2-Copy" fill="#D72342"></path>
                        </g>
                    </g>
                    <path d="M69.6899866,13.0930973 L65.2571823,27.9152266 L62.6397169,27.9152266 L59.4945368,16.6420578 L56.3493566,27.9152266 L53.7107826,27.9152266 L49.2779783,13.0930973 L52.0220953,13.0930973 L55.1039497,24.5332759 L58.2702384,13.0930973 L60.7610523,13.0930973 L63.9484496,24.5332759 L67.0091954,13.0930973 L69.6899866,13.0930973 Z M68.2667558,27.9152266 L74.2404872,13.0930973 L76.9846042,13.0930973 L82.9794442,27.9152266 L80.3197617,27.9152266 L78.905486,24.2410086 L72.235171,24.2410086 L70.8208954,27.9152266 L68.2667558,27.9152266 Z M73.0795147,22.0698798 L78.0611423,22.0698798 L75.5703285,15.6608746 L73.0795147,22.0698798 Z M101.968222,13.0930973 L97.5354174,27.9152266 L94.917952,27.9152266 L91.7727718,16.6420578 L88.6275917,27.9152266 L85.9890177,27.9152266 L81.5562134,13.0930973 L84.3003303,13.0930973 L87.3821847,24.5332759 L90.5484735,13.0930973 L93.0392873,13.0930973 L96.2266847,24.5332759 L99.2874305,13.0930973 L101.968222,13.0930973 Z M100.544991,27.9152266 L106.518722,13.0930973 L109.262839,13.0930973 L115.257679,27.9152266 L112.597997,27.9152266 L111.183721,24.2410086 L104.513406,24.2410086 L103.09913,27.9152266 L100.544991,27.9152266 Z M105.35775,22.0698798 L110.339377,22.0698798 L107.848564,15.6608746 L105.35775,22.0698798 Z M116.240828,27.9152266 L116.240828,13.0930973 L118.520556,13.0930973 L125.992997,23.6982264 L125.992997,13.0930973 L128.50492,13.0930973 L128.50492,27.9152266 L126.225192,27.9152266 L118.75275,17.268345 L118.75275,27.9152266 L116.240828,27.9152266 Z M130.564607,27.9152266 L130.564607,13.0930973 L136.031732,13.0930973 C137.213819,13.0930973 138.293864,13.2705435 139.271901,13.6254414 C140.249937,13.9803392 141.087236,14.4813639 141.783823,15.1285305 C142.48041,15.7756972 143.018674,16.5515896 143.39863,17.4562311 C143.778587,18.3608726 143.968562,19.3698807 143.968562,20.4832857 C143.968562,21.5966906 143.778587,22.6091781 143.39863,23.5207784 C143.018674,24.4323787 142.476892,25.2152298 141.773269,25.8693552 C141.069646,26.5234806 140.232346,27.0279847 139.261346,27.3828825 C138.290346,27.7377803 137.213819,27.9152266 136.031732,27.9152266 L130.564607,27.9152266 Z M133.139855,25.6397166 L135.90508,25.6397166 C137.016805,25.6397166 137.973718,25.4309563 138.775849,25.0134294 C139.577979,24.5959026 140.200677,24.0009357 140.643959,23.228511 C141.087242,22.4560864 141.30888,21.5479791 141.30888,20.5041619 C141.30888,19.4603448 141.087242,18.5522375 140.643959,17.7798128 C140.200677,17.0073881 139.574461,16.4124213 138.765294,15.9948944 C137.956128,15.5773676 137.002733,15.3686073 135.90508,15.3686073 L133.139855,15.3686073 L133.139855,25.6397166 Z M152.487478,28.3327513 C151.432043,28.3327513 150.45754,28.1413877 149.563938,27.7586548 C148.670337,27.3759218 147.896363,26.8366244 147.241993,26.1407463 C146.587624,25.4448682 146.077504,24.6272237 145.71162,23.6877883 C145.345736,22.7483529 145.162797,21.7219481 145.162797,20.6085431 C145.162797,19.7178192 145.282411,18.87234 145.521643,18.0720802 C145.760875,17.2718203 146.102127,16.5411593 146.54541,15.8800751 C146.988692,15.2189909 147.512884,14.6483795 148.118,14.1682236 C148.723116,13.6880677 149.395066,13.3192578 150.13387,13.0617829 C150.872675,12.804308 151.657203,12.6755725 152.487478,12.6755725 C153.458478,12.6755725 154.362621,12.8460601 155.199932,13.1870404 C156.037244,13.5280206 156.761965,14.0081693 157.374117,14.6275008 C157.986269,15.2468323 158.447136,15.9809727 158.75673,16.829944 L156.287025,17.5188598 C155.921141,16.7255588 155.403985,16.1097159 154.735543,15.6713127 C154.067101,15.2329095 153.310718,15.0137112 152.46637,15.0137112 C151.804964,15.0137112 151.192821,15.1528848 150.629922,15.431236 C150.067024,15.7095872 149.574495,16.0992731 149.152321,16.6003053 C148.730147,17.1013376 148.402967,17.6928251 148.170771,18.3747856 C147.938576,19.0567461 147.822479,19.7943659 147.822479,20.5876669 C147.822479,21.3809679 147.938576,22.1081496 148.170771,22.7692338 C148.402967,23.430318 148.726629,24.0009295 149.141766,24.4810854 C149.556904,24.9612412 150.049433,25.3335304 150.619368,25.5979641 C151.189303,25.8623978 151.819036,25.9946126 152.508587,25.9946126 C153.38108,25.9946126 154.151536,25.7788937 154.819978,25.3474492 C155.48842,24.9160048 156.026683,24.2966826 156.434785,23.489464 L158.90449,24.1783799 C158.580823,25.0273512 158.109403,25.7649709 157.490215,26.3912612 C156.871026,27.0175515 156.132233,27.4977001 155.273812,27.8317216 C154.415392,28.1657431 153.486623,28.3327513 152.487478,28.3327513 Z M167.317863,28.3327513 C166.44537,28.3327513 165.625662,28.2074952 164.858712,27.956979 C164.091763,27.7064629 163.395186,27.3480911 162.768962,26.8818528 C162.142737,26.4156144 161.604473,25.8623997 161.154154,25.2221918 C160.703835,24.581984 160.355547,23.8652403 160.109279,23.0719393 C159.863011,22.2786382 159.739879,21.4296797 159.739879,20.5250382 C159.739879,19.6203966 159.863011,18.7714381 160.109279,17.9781371 C160.355547,17.1848361 160.703835,16.464613 161.154154,15.8174464 C161.604473,15.1702798 162.146255,14.6101063 162.779516,14.1369092 C163.412777,13.6637121 164.112871,13.3018609 164.879821,13.0513448 C165.64677,12.8008287 166.466479,12.6755725 167.338972,12.6755725 C168.211465,12.6755725 169.031173,12.8008287 169.798123,13.0513448 C170.565072,13.3018609 171.261649,13.6602328 171.887873,14.1264711 C172.514098,14.5927094 173.052362,15.1459242 173.502681,15.786132 C173.952999,16.4263399 174.29777,17.1430836 174.537002,17.9363846 C174.776233,18.7296856 174.895848,19.5786442 174.895848,20.4832857 C174.895848,21.3879272 174.772715,22.2368858 174.526447,23.0301868 C174.280179,23.8234878 173.931891,24.5437108 173.481572,25.1908775 C173.031253,25.8380441 172.492989,26.3982175 171.866765,26.8714146 C171.24054,27.3446118 170.543963,27.7064629 169.777014,27.956979 C169.010065,28.2074952 168.190356,28.3327513 167.317863,28.3327513 Z M167.317863,25.9946126 C168.035559,25.9946126 168.693437,25.8589184 169.291516,25.587526 C169.889596,25.3161335 170.406752,24.9368857 170.842998,24.449771 C171.279244,23.9626563 171.620497,23.3816068 171.866765,22.7066051 C172.113033,22.0316033 172.236165,21.297463 172.236165,20.5041619 C172.236165,19.7108609 172.113033,18.9767205 171.866765,18.3017188 C171.620497,17.626717 171.279244,17.0456675 170.842998,16.5585529 C170.406752,16.0714382 169.889596,15.6921903 169.291516,15.4207979 C168.693437,15.1494054 168.035559,15.0137112 167.317863,15.0137112 C166.600167,15.0137112 165.94229,15.1494054 165.34421,15.4207979 C164.74613,15.6921903 164.228975,16.0714382 163.792728,16.5585529 C163.356482,17.0456675 163.01523,17.626717 162.768962,18.3017188 C162.522693,18.9767205 162.399561,19.7108609 162.399561,20.5041619 C162.399561,21.297463 162.522693,22.0316033 162.768962,22.7066051 C163.01523,23.3816068 163.356482,23.9626563 163.792728,24.449771 C164.228975,24.9368857 164.74613,25.3161335 165.34421,25.587526 C165.94229,25.8589184 166.600167,25.9946126 167.317863,25.9946126 Z" id="WAWANDCO-Copy-14" fill="#232323"></path>
                </g>
            </g>
        </g>
    </g>
</svg>